<?xml version="1.0" standalone="no"?>
<!DOCTYPE svg PUBLIC "-//W3C//DTD SVG 20010904//EN"
 "http://www.w3.org/TR/2001/REC-SVG-20010904/DTD/svg10.dtd">
<svg version="1.0" xmlns="http://www.w3.org/2000/svg"
 width="175.000000pt" height="175.000000pt" viewBox="0 0 175.000000 175.000000"
 preserveAspectRatio="xMidYMid meet">

<g transform="translate(0.000000,175.000000) scale(0.100000,-0.100000)"
fill="#000000" stroke="none">
<path d="M154 1738 c-8 -13 -5 -14 37 -22 29 -5 38 -3 43 10 9 24 -4 32 -16
10 -8 -14 -12 -15 -18 -5 -10 16 -38 21 -46 7z"/>
<path d="M378 1726 c-3 -14 0 -30 5 -35 11 -11 -5 -36 -34 -52 -15 -7 -17 -6
-13 6 4 9 0 15 -9 15 -15 0 -117 -122 -121 -144 -4 -24 -39 -66 -55 -66 -21 0
-114 -138 -107 -157 3 -8 2 -12 -3 -9 -5 3 -16 -5 -25 -19 -14 -22 -16 -83
-16 -546 0 -562 0 -559 49 -455 18 40 19 47 6 92 l-15 49 25 -30 c14 -17 22
-37 19 -47 -3 -12 20 -44 78 -105 45 -48 68 -75 50 -59 -17 16 -34 27 -37 24
-5 -4 92 -94 146 -136 18 -13 89 -44 89 -38 0 2 -21 18 -47 35 -27 17 -61 43
-78 58 -22 19 -23 22 -5 10 14 -9 61 -39 105 -67 l79 -50 497 0 497 1 146 87
146 87 0 43 0 43 -32 -17 c-18 -9 -67 -38 -108 -64 -76 -48 -268 -162 -284
-169 -27 -12 14 25 72 63 37 24 87 63 110 86 40 37 61 61 155 172 18 21 37 38
43 38 7 0 19 15 28 34 14 30 16 108 16 690 l0 656 -79 0 -78 0 -12 -55 c-13
-58 -9 -98 15 -143 14 -28 18 -52 9 -52 -3 0 -33 22 -66 50 -33 27 -70 55 -82
61 -12 6 -2 -7 23 -28 25 -21 65 -57 90 -81 40 -39 41 -41 9 -18 -20 14 -42
26 -49 26 -7 0 -42 26 -79 59 -36 32 -80 65 -97 74 -50 26 -94 67 -94 88 0 18
-12 19 -339 19 -284 0 -345 -3 -376 -16 -34 -14 -39 -14 -54 0 -11 10 -36 16
-63 16 -41 0 -46 -3 -50 -24z m588 -216 c19 -58 34 -111 34 -117 0 -22 -58
-16 -65 7 -5 16 -15 20 -50 20 -35 0 -45 -4 -50 -20 -6 -20 -49 -28 -59 -11
-3 5 13 59 36 120 l42 112 39 -3 40 -3 33 -105z m704 28 c7 -22 16 -69 21
-102 5 -34 11 -72 14 -86 5 -23 3 -23 -25 10 -37 42 -55 78 -54 105 1 47 16
115 24 115 5 0 14 -19 20 -42z m-1020 5 c13 -13 13 -16 -5 -29 -12 -9 -30 -12
-48 -8 -53 11 -73 -35 -42 -96 21 -42 85 -40 85 2 0 15 -5 18 -17 14 -17 -7
-33 9 -33 31 0 11 59 43 80 43 12 0 30 -50 30 -84 0 -67 -93 -116 -158 -82
-35 18 -76 111 -66 151 17 68 126 104 174 58z m638 -46 c28 -26 28 -66 1 -101
-24 -31 -64 -34 -112 -10 -21 11 -32 13 -35 5 -10 -31 -39 -53 -60 -47 -12 4
-22 12 -22 17 0 5 23 54 50 109 l50 100 53 -26 c28 -14 62 -35 75 -47z m-1049
-143 c-6 -8 -15 -14 -20 -14 -16 0 -9 63 9 83 17 19 17 18 20 -18 2 -20 -2
-43 -9 -51z m1269 -39 c53 -68 57 -78 36 -96 -15 -12 -21 -9 -55 31 -30 35
-41 42 -51 32 -9 -9 -4 -21 21 -52 18 -23 31 -42 30 -43 -2 -2 -12 -9 -22 -17
-17 -13 -22 -10 -52 26 -27 31 -36 36 -46 27 -10 -10 -6 -21 19 -52 37 -47 38
-52 13 -68 -18 -11 -25 -6 -71 52 -29 36 -50 70 -48 75 4 14 161 139 173 139
6 0 29 -24 53 -54z m-1112 4 c55 -23 101 -43 103 -45 9 -9 -34 -44 -50 -42
-10 2 -31 -10 -48 -26 -25 -24 -28 -32 -20 -49 9 -15 7 -24 -10 -40 -11 -12
-22 -19 -25 -16 -8 8 -116 198 -116 204 0 15 37 54 51 55 9 0 61 -18 115 -41z
m307 -248 c32 -12 91 -64 119 -105 l22 -31 -24 20 -23 20 13 -25 c10 -20 10
-23 0 -13 -11 10 -18 8 -34 -10 -12 -12 -47 -44 -79 -71 -31 -27 -57 -56 -57
-65 0 -14 -2 -14 -10 -1 -10 15 -9 16 -23 -30 -2 -8 -4 27 -3 78 1 88 -1 95
-23 113 -14 11 -37 23 -53 26 -15 3 -28 9 -28 12 0 10 60 66 85 79 25 14 85
15 118 3z m-499 -287 c20 -20 20 -48 1 -64 -20 -17 -29 -7 -16 18 13 24 6 32
-27 32 -22 0 -24 -3 -18 -30 6 -32 -2 -38 -22 -18 -28 28 -1 78 43 78 13 0 31
-7 39 -16z m1418 -29 c-4 -35 -5 -35 -53 -35 -37 0 -49 4 -49 15 0 11 11 15
40 15 33 0 40 3 40 20 0 11 6 20 13 20 9 0 12 -11 9 -35z m-1382 -136 c0 -7
-7 -17 -17 -24 -21 -15 -9 -35 17 -28 13 4 20 0 20 -10 0 -9 -18 -19 -45 -27
-49 -14 -71 -6 -42 14 24 18 21 38 -5 34 -39 -6 -29 20 14 35 54 19 58 20 58
6z m1355 -31 c-4 -18 -9 -36 -11 -40 -6 -10 -105 25 -100 36 4 12 4 12 53 1
26 -5 32 -3 38 14 11 35 27 25 20 -11z m-104 -120 c22 -12 39 -28 39 -35 0
-18 -5 -17 -50 10 -22 12 -40 28 -40 35 0 17 6 15 51 -10z m-1181 -12 c0 -15
-58 -56 -79 -56 -23 0 -9 20 32 44 50 30 47 30 47 12z m-275 -44 c-8 -8 -25
10 -19 20 4 6 9 5 15 -3 4 -7 6 -15 4 -17z m1387 -52 c7 -11 19 -20 26 -20 8
0 12 -6 9 -12 -2 -7 -14 -12 -26 -11 -18 2 -20 -1 -15 -22 8 -33 -4 -32 -49 6
l-38 31 22 24 c27 29 55 31 71 4z m-1031 -10 c21 -12 28 -65 7 -57 -7 2 -12
10 -10 16 3 17 -26 25 -43 11 -22 -18 -19 -29 12 -41 19 -7 23 -13 15 -21 -16
-16 -62 17 -62 44 0 25 27 58 47 58 8 0 23 -5 34 -10z m-256 -32 c10 -18 50
-67 89 -108 l71 -74 -85 74 c-100 87 -120 109 -113 127 8 20 17 16 38 -19z
m371 -84 c-4 -11 0 -13 18 -8 33 8 43 -14 12 -26 -20 -7 -26 -16 -26 -41 0
-27 -2 -30 -15 -19 -8 7 -15 20 -15 29 0 14 -2 14 -10 1 -6 -10 -12 -12 -19
-5 -13 13 36 98 50 89 6 -3 8 -12 5 -20z m774 17 c0 -5 -9 -11 -20 -14 -23 -6
-26 -29 -5 -47 15 -12 35 -6 35 11 0 6 -4 8 -9 4 -16 -9 -22 12 -6 25 19 15
35 5 35 -24 0 -47 -57 -63 -84 -24 -19 27 -20 50 -4 66 14 14 58 16 58 3z
m-601 -82 c41 -14 41 -33 0 -24 -22 5 -29 4 -25 -4 4 -6 14 -11 22 -11 8 0 14
-7 14 -15 0 -11 -7 -14 -25 -9 -33 8 -32 -4 2 -17 40 -15 15 -32 -26 -18 -34
12 -35 20 -11 84 11 29 8 28 49 14z m405 -25 c0 -16 4 -20 18 -16 10 2 18 0
18 -6 0 -6 2 -17 5 -24 7 -18 -71 -47 -84 -32 -15 16 -20 81 -8 93 19 19 52 9
51 -15z m-251 -26 l16 -23 0 23 c1 13 7 22 16 22 11 0 15 -12 15 -50 0 -55
-17 -67 -43 -30 l-14 21 -6 -21 c-10 -39 -27 -21 -27 30 0 56 16 66 43 28z"/>
<path d="M873 1505 c-11 -33 -10 -35 13 -35 25 0 28 9 18 48 -9 31 -19 27 -31
-13z"/>
<path d="M1180 1471 c-14 -27 -14 -28 19 -39 24 -8 32 -7 43 5 10 13 9 18 -11
34 -29 24 -38 24 -51 0z"/>
<path d="M310 1284 c0 -3 7 -19 16 -36 16 -30 17 -31 30 -13 20 27 18 32 -16
44 -16 5 -30 8 -30 5z"/>
<path d="M1375 349 c-4 -6 -5 -13 -2 -16 7 -7 27 6 27 18 0 12 -17 12 -25 -2z"/>
<path d="M292 1718 c-16 -16 -16 -59 1 -55 15 3 30 48 19 59 -5 5 -13 3 -20
-4z"/>
<path d="M168 1674 c4 -22 6 -24 14 -10 9 16 3 36 -11 36 -5 0 -6 -12 -3 -26z"/>
<path d="M151 1664 c0 -11 3 -14 6 -6 3 7 2 16 -1 19 -3 4 -6 -2 -5 -13z"/>
<path d="M0 1630 c0 -5 5 -10 10 -10 6 0 10 5 10 10 0 6 -4 10 -10 10 -5 0
-10 -4 -10 -10z"/>
<path d="M200 1581 c0 -6 4 -13 10 -16 6 -3 7 1 4 9 -7 18 -14 21 -14 7z"/>
<path d="M90 1515 c0 -24 5 -35 15 -35 20 0 32 50 14 61 -24 15 -29 10 -29
-26z"/>
<path d="M0 1396 c0 -8 5 -18 10 -21 6 -3 10 1 10 9 0 8 -4 18 -10 21 -5 3
-10 -1 -10 -9z"/>
<path d="M1 40 c0 -36 2 -41 10 -27 7 12 7 27 0 45 -9 25 -9 24 -10 -18z"/>
</g>
</svg>
